<svg width="695" height="324" viewBox="0 0 695 324" fill="none" xmlns="http://www.w3.org/2000/svg">
<mask id="mask0_113_39" style="mask-type:alpha" maskUnits="userSpaceOnUse" x="0" y="0" width="695" height="324">
<rect x="0.100037" width="694.9" height="323.209" fill="#D9D9D9"/>
</mask>
<g mask="url(#mask0_113_39)">
<path d="M678.839 355.53C678.839 547.422 532.325 702.98 351.59 702.98C170.855 702.98 24.3407 547.422 24.3407 355.53C24.3407 163.639 170.855 8.08026 351.59 8.08026C532.325 8.08026 678.839 163.639 678.839 355.53Z" fill="url(#paint0_linear_113_39)"/>
<path d="M232.94 75.8868C238.173 75.8868 242.99 76.7701 247.39 78.5368C251.823 80.2701 255.657 82.7535 258.89 85.9868C262.157 89.2201 264.673 93.0535 266.44 97.4868C268.24 101.92 269.14 106.82 269.14 112.187C269.14 117.687 268.207 122.737 266.34 127.337C264.507 131.903 261.907 135.87 258.54 139.237C255.207 142.603 251.257 145.203 246.69 147.037C242.157 148.87 237.173 149.787 231.74 149.787C226.473 149.787 221.623 148.92 217.19 147.187C212.79 145.42 208.957 142.92 205.69 139.687C202.457 136.453 199.94 132.62 198.14 128.187C196.34 123.753 195.44 118.837 195.44 113.437C195.44 107.97 196.357 102.937 198.19 98.3368C200.057 93.7368 202.673 89.7701 206.04 86.4368C209.407 83.0701 213.373 80.4701 217.94 78.6368C222.507 76.8035 227.507 75.8868 232.94 75.8868ZM232.94 146.587C236.807 146.587 240.173 145.47 243.04 143.237C245.94 140.97 248.19 137.553 249.79 132.987C251.39 128.42 252.19 122.637 252.19 115.637C252.19 107.803 251.34 101.17 249.64 95.7368C247.973 90.3035 245.607 86.1701 242.54 83.3368C239.473 80.5035 235.857 79.0868 231.69 79.0868C227.823 79.0868 224.44 80.2035 221.54 82.4368C218.64 84.6701 216.39 88.0868 214.79 92.6868C213.19 97.2535 212.39 103.037 212.39 110.037C212.39 117.87 213.223 124.503 214.89 129.937C216.59 135.37 218.973 139.503 222.04 142.337C225.14 145.17 228.773 146.587 232.94 146.587ZM282.838 145.337L289.088 144.537L277.938 150.437L277.238 149.987L279.588 137.487V86.3868C279.154 86.0535 278.554 85.6035 277.788 85.0368C277.054 84.4368 276.171 83.7368 275.138 82.9368C274.104 82.1035 272.938 81.1701 271.638 80.1368V78.9868L293.638 74.1868H294.538L294.138 83.5368V137.337C294.138 139.237 294.521 140.903 295.288 142.337C296.088 143.77 297.188 144.887 298.588 145.687C300.021 146.487 301.638 146.887 303.438 146.887C305.938 146.887 308.071 146.12 309.838 144.587C311.638 143.02 313.004 140.57 313.938 137.237C314.904 133.903 315.388 129.587 315.388 124.287C315.388 119.62 314.921 115.837 313.988 112.937C313.088 110.037 311.704 107.92 309.838 106.587C308.004 105.253 305.654 104.587 302.788 104.587C301.421 104.587 300.104 104.737 298.838 105.037C297.571 105.337 296.321 105.82 295.088 106.487C293.888 107.153 292.671 108.07 291.438 109.237L290.988 107.887C293.221 105.487 295.221 103.537 296.988 102.037C298.788 100.503 300.438 99.3201 301.938 98.4868C303.438 97.6201 304.871 97.0201 306.238 96.6868C307.638 96.3535 309.038 96.1868 310.438 96.1868C314.638 96.1868 318.238 97.1201 321.238 98.9868C324.238 100.853 326.538 103.553 328.138 107.087C329.738 110.62 330.538 114.903 330.538 119.937C330.538 124.77 329.821 129.037 328.388 132.737C326.988 136.437 324.988 139.553 322.388 142.087C319.821 144.62 316.788 146.537 313.288 147.837C309.788 149.137 305.938 149.787 301.738 149.787C299.538 149.787 297.354 149.637 295.188 149.337C293.054 149.037 290.954 148.553 288.888 147.887C286.821 147.22 284.804 146.37 282.838 145.337ZM348.423 90.1868C345.923 90.1868 343.94 89.3701 342.473 87.7368C341.04 86.1035 340.323 84.2368 340.323 82.1368C340.323 80.0701 341.04 78.3035 342.473 76.8368C343.94 75.3701 345.923 74.6368 348.423 74.6368C350.923 74.6368 352.873 75.3701 354.273 76.8368C355.673 78.3035 356.373 80.0701 356.373 82.1368C356.373 84.2368 355.673 86.1035 354.273 87.7368C352.873 89.3701 350.923 90.1868 348.423 90.1868ZM341.823 108.287C341.456 107.953 340.956 107.52 340.323 106.987C339.69 106.453 338.956 105.82 338.123 105.087C337.29 104.353 336.356 103.537 335.323 102.637V101.387L355.723 95.8368H356.373V106.087V143.487C356.373 145.653 356.256 147.537 356.023 149.137C355.823 150.737 355.34 152.27 354.573 153.737C353.84 155.203 352.69 156.737 351.123 158.337C349.59 159.97 347.523 161.837 344.923 163.937C342.323 166.07 339.04 168.637 335.073 171.637L334.073 170.537C335.906 168.303 337.34 166.42 338.373 164.887C339.44 163.387 340.206 161.97 340.673 160.637C341.173 159.337 341.49 157.903 341.623 156.337C341.756 154.77 341.823 152.82 341.823 150.487V108.287ZM391.429 96.1868C395.396 96.1868 398.796 96.9868 401.629 98.5868C404.462 100.153 406.696 102.453 408.329 105.487C409.962 108.487 410.929 112.153 411.229 116.487H377.629V112.887H404.379L397.879 115.187C397.612 111.253 397.146 108.137 396.479 105.837C395.846 103.503 394.979 101.837 393.879 100.837C392.779 99.8035 391.412 99.2868 389.779 99.2868C387.712 99.2868 385.929 99.9035 384.429 101.137C382.962 102.37 381.846 104.337 381.079 107.037C380.312 109.737 379.929 113.27 379.929 117.637C379.929 122.937 380.579 127.22 381.879 130.487C383.179 133.753 385.096 136.137 387.629 137.637C390.162 139.103 393.262 139.837 396.929 139.837C398.762 139.837 400.496 139.62 402.129 139.187C403.762 138.753 405.329 138.053 406.829 137.087C408.362 136.12 409.812 134.87 411.179 133.337L412.229 134.187C409.996 138.087 407.746 141.17 405.479 143.437C403.212 145.703 400.829 147.337 398.329 148.337C395.862 149.303 393.146 149.787 390.179 149.787C385.446 149.787 381.246 148.787 377.579 146.787C373.912 144.787 371.046 141.87 368.979 138.037C366.912 134.17 365.879 129.487 365.879 123.987C365.879 118.987 366.862 114.387 368.829 110.187C370.796 105.953 373.679 102.57 377.479 100.037C381.279 97.4701 385.929 96.1868 391.429 96.1868ZM445.194 96.1868C449.094 96.1868 452.227 96.6035 454.594 97.4368C456.994 98.2701 458.727 99.3368 459.794 100.637C460.861 101.903 461.394 103.237 461.394 104.637C461.394 105.803 461.111 106.837 460.544 107.737C460.011 108.603 459.294 109.27 458.394 109.737C457.527 110.203 456.544 110.437 455.444 110.437C455.111 110.437 454.594 110.07 453.894 109.337C453.227 108.57 452.427 107.637 451.494 106.537C450.561 105.437 449.511 104.337 448.344 103.237C447.211 102.103 446.027 101.17 444.794 100.437C443.561 99.6701 442.311 99.2868 441.044 99.2868C439.144 99.2868 437.461 99.8535 435.994 100.987C434.527 102.12 433.377 103.97 432.544 106.537C431.744 109.07 431.344 112.453 431.344 116.687C431.344 122.253 431.961 126.753 433.194 130.187C434.461 133.587 436.294 136.053 438.694 137.587C441.094 139.087 444.044 139.837 447.544 139.837C450.277 139.837 452.777 139.37 455.044 138.437C457.311 137.47 459.461 135.837 461.494 133.537L462.544 134.437C460.377 138.27 458.194 141.303 455.994 143.537C453.794 145.77 451.477 147.37 449.044 148.337C446.644 149.303 443.994 149.787 441.094 149.787C436.461 149.787 432.344 148.787 428.744 146.787C425.177 144.753 422.377 141.82 420.344 137.987C418.311 134.12 417.294 129.437 417.294 123.937C417.294 119.937 417.994 116.253 419.394 112.887C420.827 109.487 422.811 106.537 425.344 104.037C427.911 101.537 430.877 99.6035 434.244 98.2368C437.644 96.8701 441.294 96.1868 445.194 96.1868ZM486.899 134.037C486.899 136.337 487.599 138.053 488.999 139.187C490.432 140.32 492.482 140.887 495.149 140.887C496.649 140.887 498.232 140.77 499.899 140.537C501.565 140.303 503.532 139.887 505.799 139.287V141.237C502.399 143.503 499.565 145.253 497.299 146.487C495.032 147.72 493.015 148.587 491.249 149.087C489.515 149.587 487.749 149.837 485.949 149.837C483.315 149.837 480.965 149.337 478.899 148.337C476.865 147.303 475.265 145.72 474.099 143.587C472.932 141.42 472.349 138.653 472.349 135.287V105.937L465.099 100.587V99.5368C465.465 99.3035 466.165 98.9035 467.199 98.3368C468.232 97.7368 469.465 97.0201 470.899 96.1868C472.365 95.3535 473.949 94.4368 475.649 93.4368C477.382 92.4368 479.149 91.4035 480.949 90.3368C482.749 89.2701 484.465 88.2535 486.099 87.2868H486.899V98.8868V134.037ZM481.449 104.337V97.3868H504.099L503.149 104.337H481.449ZM180.276 244.737L188.476 246.937V248.587H155.376V246.937L163.576 244.737V180.887L155.376 178.737V177.087H188.476V178.737L180.276 180.887V244.737ZM228.026 244.737L236.226 246.937V248.587H203.126V246.937L211.326 244.737V180.887L203.126 178.737V177.087H236.226V178.737L228.026 180.887V244.737ZM171.126 213.487V209.637H220.326V213.487H171.126ZM265.856 246.837C268.356 246.837 270.406 246.02 272.006 244.387C273.606 242.753 274.773 240.237 275.506 236.837C276.273 233.437 276.656 229.12 276.656 223.887C276.656 218.42 276.289 213.853 275.556 210.187C274.823 206.52 273.656 203.77 272.056 201.937C270.489 200.07 268.439 199.137 265.906 199.137C263.406 199.137 261.356 199.953 259.756 201.587C258.156 203.22 256.973 205.737 256.206 209.137C255.439 212.537 255.056 216.853 255.056 222.087C255.056 227.52 255.423 232.087 256.156 235.787C256.889 239.453 258.039 242.22 259.606 244.087C261.206 245.92 263.289 246.837 265.856 246.837ZM265.406 249.787C260.439 249.787 256.023 248.653 252.156 246.387C248.289 244.12 245.239 240.987 243.006 236.987C240.806 232.953 239.706 228.32 239.706 223.087C239.706 217.787 240.873 213.12 243.206 209.087C245.539 205.02 248.706 201.853 252.706 199.587C256.739 197.32 261.273 196.187 266.306 196.187C271.373 196.187 275.839 197.32 279.706 199.587C283.573 201.82 286.589 204.953 288.756 208.987C290.956 212.987 292.056 217.62 292.056 222.887C292.056 228.187 290.856 232.87 288.456 236.937C286.089 240.97 282.889 244.12 278.856 246.387C274.856 248.653 270.373 249.787 265.406 249.787ZM335 196.387C336.733 196.387 338.1 196.92 339.1 197.987C340.133 199.02 340.65 200.403 340.65 202.137C340.65 204.303 339.95 206.137 338.55 207.637C337.15 209.103 335.416 209.837 333.35 209.837C332.183 209.837 331.133 209.737 330.2 209.537C329.266 209.303 328.333 209.07 327.4 208.837C326.466 208.603 325.4 208.487 324.2 208.487C323.233 208.487 322.333 208.62 321.5 208.887C320.7 209.153 319.916 209.537 319.15 210.037C318.416 210.537 317.666 211.187 316.9 211.987L316.85 209.687C319.55 206.687 321.816 204.303 323.65 202.537C325.516 200.77 327.1 199.453 328.4 198.587C329.733 197.687 330.9 197.103 331.9 196.837C332.933 196.537 333.966 196.387 335 196.387ZM318.2 206.087V245.487L325.15 247.087V248.587H297.7V247.087L303.65 245.487V208.287C303.216 207.887 302.733 207.47 302.2 207.037C301.666 206.603 301 206.037 300.2 205.337C299.4 204.637 298.383 203.737 297.15 202.637V201.387L317.55 195.837H318.2V206.087ZM356.298 190.187C353.798 190.187 351.815 189.37 350.348 187.737C348.915 186.103 348.198 184.237 348.198 182.137C348.198 180.07 348.915 178.303 350.348 176.837C351.815 175.37 353.798 174.637 356.298 174.637C358.798 174.637 360.732 175.37 362.098 176.837C363.498 178.303 364.198 180.07 364.198 182.137C364.198 184.237 363.498 186.103 362.098 187.737C360.732 189.37 358.798 190.187 356.298 190.187ZM364.198 195.837V206.087V245.587L369.948 247.087V248.587H343.698V247.087L349.648 245.487V208.287C349.282 207.953 348.782 207.52 348.148 206.987C347.515 206.453 346.782 205.82 345.948 205.087C345.115 204.353 344.182 203.537 343.148 202.637V201.387L363.548 195.837H364.198ZM374.612 248.587V247.087L404.162 198.237L409.162 200.187L378.362 200.737L383.362 198.937L375.962 215.237H374.162L377.462 193.687H378.212L382.512 197.387H418.812V198.837L388.912 248.237L382.412 245.887L414.062 245.087L409.262 247.487L419.762 228.437H421.662L416.512 248.587H374.612ZM451.794 246.837C454.294 246.837 456.344 246.02 457.944 244.387C459.544 242.753 460.71 240.237 461.444 236.837C462.21 233.437 462.594 229.12 462.594 223.887C462.594 218.42 462.227 213.853 461.494 210.187C460.76 206.52 459.594 203.77 457.994 201.937C456.427 200.07 454.377 199.137 451.844 199.137C449.344 199.137 447.294 199.953 445.694 201.587C444.094 203.22 442.91 205.737 442.144 209.137C441.377 212.537 440.994 216.853 440.994 222.087C440.994 227.52 441.36 232.087 442.094 235.787C442.827 239.453 443.977 242.22 445.544 244.087C447.144 245.92 449.227 246.837 451.794 246.837ZM451.344 249.787C446.377 249.787 441.96 248.653 438.094 246.387C434.227 244.12 431.177 240.987 428.944 236.987C426.744 232.953 425.644 228.32 425.644 223.087C425.644 217.787 426.81 213.12 429.144 209.087C431.477 205.02 434.644 201.853 438.644 199.587C442.677 197.32 447.21 196.187 452.244 196.187C457.31 196.187 461.777 197.32 465.644 199.587C469.51 201.82 472.527 204.953 474.694 208.987C476.894 212.987 477.994 217.62 477.994 222.887C477.994 228.187 476.794 232.87 474.394 236.937C472.027 240.97 468.827 244.12 464.794 246.387C460.794 248.653 456.31 249.787 451.344 249.787ZM504.137 207.137V245.587L509.887 247.087V248.587H483.637V247.087L489.587 245.487V208.287C489.021 207.787 488.237 207.07 487.237 206.137C486.237 205.17 484.854 204.003 483.087 202.637V201.387L503.487 195.837H504.137V207.137ZM516.537 247.087L522.287 245.587V214.487C522.287 212.52 521.971 210.92 521.337 209.687C520.704 208.453 519.754 207.537 518.487 206.937C517.221 206.337 515.587 206.037 513.587 206.037C511.587 206.037 509.654 206.32 507.787 206.887C505.921 207.42 504.171 208.07 502.537 208.837L502.137 207.887C504.737 205.387 506.971 203.37 508.837 201.837C510.704 200.303 512.371 199.153 513.837 198.387C515.337 197.587 516.787 197.053 518.187 196.787C519.621 196.52 521.204 196.387 522.937 196.387C527.637 196.387 531.137 197.687 533.437 200.287C535.737 202.853 536.887 206.72 536.887 211.887V245.487L542.787 247.087V248.587H516.537V247.087Z" fill="white"/>
</g>
<defs>
<linearGradient id="paint0_linear_113_39" x1="351.59" y1="8.08026" x2="351.59" y2="702.98" gradientUnits="userSpaceOnUse">
<stop stop-color="#021F86"/>
<stop offset="0.255108" stop-color="#528FEA" stop-opacity="0.632184"/>
<stop offset="0.255208" stop-color="#528FEA" stop-opacity="0.632184"/>
<stop offset="0.317708" stop-color="#93ABD0" stop-opacity="0.361446"/>
<stop offset="0.4375" stop-color="#F77E0E" stop-opacity="0"/>
<stop offset="0.578125" stop-color="#5888CE" stop-opacity="0"/>
</linearGradient>
</defs>
</svg>
